<?xml version="1.0" standalone="no"?>
<!DOCTYPE svg PUBLIC "-//W3C//DTD SVG 20010904//EN"
 "http://www.w3.org/TR/2001/REC-SVG-20010904/DTD/svg10.dtd">
<svg version="1.0" xmlns="http://www.w3.org/2000/svg"
 width="1276.000000pt" height="1276.000000pt" viewBox="0 0 1276.000000 1276.000000"
 preserveAspectRatio="xMidYMid meet">
<metadata>
Created by potrace 1.14, written by Peter Selinger 2001-2017
</metadata>
<g transform="translate(0.000000,1276.000000) scale(0.100000,-0.100000)"
fill="#000000" stroke="none">
<path d="M435 9434 c-188 -29 -330 -165 -352 -338 -15 -120 20 -236 96 -319
43 -46 135 -101 186 -112 17 -3 41 -9 55 -12 59 -15 269 -8 367 13 44 9 50 19
58 94 6 61 5 66 -14 67 -15 1 -26 -9 -40 -41 -24 -56 -72 -91 -145 -106 -143
-29 -271 18 -364 134 -28 35 -55 132 -58 209 -3 98 16 173 61 241 70 106 145
145 275 142 123 -3 195 -39 226 -113 10 -24 21 -33 38 -33 22 0 23 3 16 38 -3
20 -7 40 -8 45 -1 4 -2 20 -2 36 0 27 -4 30 -52 41 -55 12 -291 21 -343 14z"/>
<path d="M1475 9409 c-22 -5 -47 -12 -55 -15 -8 -3 -15 -4 -15 -3 0 2 -27 -14
-60 -35 -121 -76 -185 -176 -193 -302 -8 -125 28 -224 110 -304 86 -84 205
-128 348 -128 142 0 234 33 336 120 122 104 156 290 80 443 -60 121 -130 177
-269 219 -49 15 -224 18 -282 5z m260 -46 c75 -40 138 -115 163 -193 66 -204
-6 -415 -167 -491 -49 -23 -176 -36 -186 -19 -4 6 -10 8 -15 5 -15 -9 -89 34
-131 75 -112 111 -138 329 -57 482 61 114 152 169 278 164 53 -1 86 -8 115
-23z"/>
<path d="M4643 9405 c-200 -45 -328 -208 -317 -404 12 -190 131 -324 327 -366
61 -13 262 -13 317 0 14 3 41 8 60 11 46 7 51 14 58 66 10 83 8 93 -13 93 -13
0 -27 -16 -45 -49 -23 -46 -68 -81 -120 -95 -41 -11 -151 -9 -200 4 -206 54
-308 327 -203 542 56 114 149 175 275 179 125 5 212 -32 246 -104 11 -25 25
-38 40 -40 23 -3 23 -2 17 49 -12 95 -14 101 -38 105 -7 1 -25 5 -42 9 -66 14
-299 15 -362 0z"/>
<path d="M6336 9383 c-3 -15 -8 -45 -11 -65 -2 -21 -5 -41 -6 -45 -4 -26 3
-41 19 -38 9 2 20 4 25 4 4 1 7 9 7 20 0 22 34 67 62 82 12 6 53 13 92 15 39
2 73 4 76 5 14 4 66 -4 70 -11 4 -6 5 -516 1 -606 -2 -40 -33 -66 -81 -68 -33
-1 -45 -5 -45 -16 0 -13 29 -15 198 -16 177 0 197 1 197 16 0 11 -8 16 -22 15
-38 -3 -96 16 -104 34 -4 9 -8 159 -9 334 -2 260 0 317 11 313 7 -3 16 -1 19
4 3 5 11 7 18 5 7 -2 50 -6 96 -10 99 -6 123 -19 151 -79 14 -31 25 -43 37
-42 14 3 18 12 16 47 -1 24 -4 58 -7 74 -2 17 -5 36 -5 43 -1 10 -31 11 -138
6 -175 -7 -417 -7 -555 1 l-106 6 -6 -28z"/>
<path d="M2380 9386 c0 -6 15 -17 33 -24 17 -6 47 -24 65 -40 l33 -28 -3 -292
c-3 -325 -3 -321 -72 -324 -28 -1 -36 -5 -34 -17 3 -14 24 -16 146 -17 79 -1
145 3 148 8 9 15 5 16 -76 32 -32 6 -37 45 -37 292 -1 244 -1 245 19 227 35
-31 226 -217 409 -399 96 -96 178 -174 180 -174 3 0 5 110 5 245 -1 135 3 245
7 245 5 0 5 5 1 11 -5 9 -7 139 -2 186 2 23 34 43 73 48 21 3 41 8 44 11 15
15 -35 22 -160 22 -125 0 -139 -2 -139 -17 0 -10 8 -18 18 -18 94 1 94 2 93
-276 0 -126 -2 -231 -3 -233 -2 -1 -84 77 -183 173 -99 96 -225 219 -280 273
l-100 97 -92 1 c-68 1 -93 -2 -93 -12z"/>
<path d="M3652 9393 c-10 -4 -10 -8 -2 -18 6 -8 17 -12 25 -9 20 8 72 -22 78
-45 2 -11 5 -151 5 -311 0 -274 -1 -293 -19 -311 -17 -17 -43 -24 -76 -20 -7
1 -13 -3 -13 -9 0 -5 -1 -13 -2 -17 -2 -5 77 -8 175 -9 143 -1 177 2 177 12 0
8 -3 14 -7 15 -5 0 -18 2 -30 3 -41 5 -73 34 -74 69 -5 155 -2 553 4 576 5 20
16 32 38 40 17 6 34 9 38 7 12 -8 34 11 27 22 -6 10 -316 14 -344 5z"/>
<path d="M5394 9389 c-6 -11 44 -32 56 -24 5 3 20 -5 35 -17 l26 -23 0 -285
c0 -157 -2 -296 -5 -309 -8 -36 -28 -52 -69 -54 -21 -1 -37 -5 -37 -9 0 -5 0
-11 0 -15 0 -5 64 -9 142 -9 79 -1 225 -4 325 -8 100 -3 185 -2 187 3 3 4 8
35 12 67 3 32 8 63 11 68 8 12 -16 24 -38 19 -10 -3 -19 -12 -19 -20 0 -8 -8
-28 -17 -44 -23 -38 -63 -48 -180 -45 -110 3 -170 25 -180 65 -8 32 -8 243 -1
263 5 12 27 14 121 12 64 -2 121 -5 128 -6 22 -5 42 -28 43 -51 1 -15 8 -23
24 -25 25 -4 24 -8 26 110 l1 87 -27 -1 c-15 -1 -25 -4 -23 -9 10 -15 -14 -57
-37 -65 -38 -12 -258 -12 -259 0 0 6 -1 74 -2 151 l-1 140 35 2 c40 2 60 3
114 4 22 0 45 1 50 1 39 1 123 -17 137 -29 9 -8 20 -28 23 -43 7 -31 24 -43
44 -30 12 7 9 69 -5 121 -4 15 -38 16 -320 16 -173 0 -317 -4 -320 -8z"/>
<path d="M9111 9330 c-30 -61 -112 -162 -243 -299 -182 -190 -205 -232 -195
-341 3 -30 21 -98 39 -150 l33 -95 -32 -64 c-17 -35 -34 -73 -38 -85 -9 -26
-8 -25 -40 -111 -13 -38 -26 -79 -28 -90 -1 -11 -6 -26 -10 -32 -5 -7 -6 -13
-3 -13 3 0 1 -12 -5 -26 -5 -15 -12 -43 -15 -63 -3 -20 -7 -47 -10 -61 -7 -42
-17 -133 -17 -163 -1 -35 -14 -22 -23 23 -13 64 -10 154 7 231 10 41 20 86 22
100 3 14 15 58 27 99 23 76 34 186 20 195 -4 3 -10 16 -14 29 -6 24 -86 160
-106 180 -7 7 -10 -8 -11 -44 -1 -102 -19 -193 -90 -449 -70 -250 -64 -279 83
-433 l83 -86 1 -64 c1 -59 11 -176 19 -217 2 -10 6 -36 9 -57 15 -90 68 -265
108 -353 11 -25 22 -50 25 -56 2 -5 -14 10 -36 35 -23 25 -41 50 -41 57 0 6
-4 13 -8 15 -20 7 -76 177 -97 296 -27 155 -44 194 -107 246 -36 29 -168 106
-182 106 -3 0 6 -19 18 -42 38 -74 78 -202 101 -328 4 -19 11 -55 16 -80 5
-25 11 -58 14 -75 33 -208 82 -255 333 -324 36 -10 46 -19 67 -61 33 -65 140
-222 205 -302 69 -84 205 -214 281 -269 34 -24 74 -54 88 -67 26 -22 26 -22
-44 3 -112 41 -155 75 -285 225 -154 177 -182 193 -334 194 -69 0 -101 -4
-104 -12 -2 -6 8 -16 23 -22 41 -16 245 -224 350 -358 35 -44 99 -102 130
-116 44 -21 120 -24 205 -9 41 8 91 16 110 20 19 3 37 7 38 8 2 2 52 -20 110
-49 185 -92 308 -138 467 -172 94 -21 165 -33 230 -39 22 -2 49 -4 60 -5 12
-1 2 -8 -25 -16 -72 -23 -206 -12 -325 27 -55 17 -104 35 -110 39 -12 10 -90
32 -129 37 -16 2 -31 5 -33 7 -3 2 -32 -2 -65 -10 -60 -14 -218 -91 -218 -106
0 -5 12 -9 28 -9 51 -2 94 -9 155 -24 68 -17 270 -81 302 -95 11 -5 54 -21 95
-34 144 -48 205 -25 394 146 28 25 81 40 120 35 33 -4 91 -34 119 -61 6 -6 35
-29 62 -52 138 -112 172 -114 424 -28 237 81 316 102 408 110 l72 7 -42 24
c-154 86 -157 87 -247 87 -47 1 -94 -3 -105 -8 -11 -5 -24 -10 -30 -12 -5 -2
-64 -22 -130 -45 -114 -41 -126 -43 -235 -43 -70 0 -123 5 -135 12 -19 11 -19
11 5 13 50 2 193 20 201 25 3 2 21 6 40 9 155 27 405 117 551 199 55 30 77 32
178 10 138 -29 225 -21 290 28 13 11 44 43 68 71 179 211 296 331 366 376 l50
31 -40 1 c-201 6 -243 -4 -316 -75 -29 -28 -71 -73 -93 -101 -114 -142 -239
-235 -335 -250 -19 -3 -28 -2 -20 1 8 4 17 10 20 13 3 4 34 28 70 53 100 72
185 150 257 236 27 31 53 62 58 68 6 6 17 22 25 34 8 13 24 35 36 49 27 34 96
145 122 197 19 37 27 43 92 63 40 13 77 24 84 25 32 6 106 47 135 75 34 33 66
95 75 146 14 85 36 200 40 214 3 9 7 32 10 51 14 95 81 287 114 324 11 12 -14
3 -68 -25 -98 -51 -183 -130 -195 -180 -4 -19 -9 -38 -10 -44 -2 -5 -5 -26 -9
-45 -11 -67 -17 -95 -22 -112 -3 -9 -6 -25 -9 -35 -19 -99 -71 -212 -126 -274
-22 -24 -36 -35 -31 -24 41 87 71 166 72 187 1 4 7 23 16 43 8 19 14 37 14 40
0 3 0 6 1 8 1 4 7 31 12 57 3 14 8 36 11 50 17 74 28 186 35 336 1 11 37 57
82 104 122 127 148 197 114 314 -9 32 -18 64 -19 70 -1 6 -10 36 -19 66 -9 30
-16 57 -16 60 0 3 -8 29 -17 59 -17 59 -19 67 -35 156 -5 33 -12 69 -14 80 -2
11 -4 46 -4 79 l-1 58 -35 -51 c-54 -82 -96 -174 -99 -221 -2 -27 14 -109 41
-214 28 -106 46 -198 47 -243 4 -104 -23 -230 -29 -135 -12 191 -75 433 -160
620 l-37 80 37 112 c61 191 47 251 -95 400 -214 226 -279 304 -315 379 -11 22
-22 41 -25 41 -9 0 -14 -65 -13 -155 1 -93 28 -164 89 -230 20 -22 64 -69 97
-105 33 -36 75 -88 93 -115 51 -76 99 -225 73 -225 -5 0 -9 5 -9 11 0 9 -103
166 -141 213 -97 124 -209 236 -236 236 -13 0 -23 -6 -23 -12 0 -7 38 -52 85
-100 46 -49 109 -118 139 -155 64 -80 159 -233 145 -233 -28 0 -70 35 -109 92
-24 35 -46 65 -50 68 -3 3 -25 32 -49 65 -134 182 -230 240 -354 214 -125 -27
-147 -39 -91 -53 70 -18 190 -120 282 -240 129 -168 160 -193 255 -202 29 -3
68 -7 87 -9 19 -2 45 -4 56 -5 51 -1 170 -329 199 -550 2 -14 6 -39 10 -56 10
-53 15 -174 7 -174 -9 0 -29 31 -53 80 -16 33 -21 62 -34 175 -11 93 -26 166
-50 245 -24 77 -107 140 -222 169 -21 5 -51 12 -67 15 l-28 7 35 -42 c57 -66
117 -200 133 -299 3 -14 7 -33 10 -42 3 -10 7 -30 10 -45 2 -16 10 -53 16 -83
7 -30 12 -57 13 -60 0 -3 11 -24 24 -46 16 -28 46 -56 95 -88 39 -25 84 -58
99 -72 28 -26 28 -27 22 -117 -5 -93 -8 -116 -25 -202 -5 -27 -11 -59 -13 -70
-11 -64 -68 -236 -104 -315 l-26 -55 -9 30 c-16 51 -9 92 42 244 70 209 79
291 44 368 -19 41 -154 183 -173 183 -7 0 -9 -5 -4 -12 13 -22 15 -40 18 -143
4 -105 -12 -203 -56 -348 -32 -103 -31 -180 3 -243 14 -27 41 -76 58 -109 l33
-60 -38 -65 c-21 -36 -42 -66 -47 -68 -4 -2 -8 -8 -8 -13 0 -9 -36 -65 -50
-79 -3 -3 -23 -27 -45 -55 -88 -112 -293 -302 -397 -369 l-27 -17 12 38 c12
39 31 60 203 223 132 126 167 177 172 254 5 62 -10 144 -36 205 l-15 36 -13
-42 c-30 -102 -102 -204 -223 -317 -172 -163 -184 -183 -182 -313 1 -47 2 -88
3 -91 4 -16 -15 -52 -27 -52 -7 0 -15 -4 -17 -8 -1 -5 -50 -32 -108 -60 -126
-61 -306 -123 -400 -138 -14 -3 -45 -8 -70 -14 -25 -5 -79 -12 -120 -16 -41
-3 -77 -8 -80 -10 -3 -1 -12 1 -19 5 -27 17 92 69 199 87 14 2 45 9 70 14 25
6 54 12 65 14 43 8 80 19 90 26 6 3 29 12 52 19 76 21 133 109 149 228 3 26 8
56 10 66 4 24 -1 22 -48 -23 -34 -32 -146 -102 -168 -105 -3 -1 -27 -8 -55
-17 -27 -10 -90 -27 -140 -38 -161 -39 -198 -63 -281 -186 -31 -46 -62 -84
-68 -85 -6 0 -19 -2 -29 -4 -20 -4 -47 22 -80 75 -42 67 -134 167 -145 156 -3
-3 -11 -1 -17 4 -7 6 -75 26 -151 45 -159 40 -282 96 -340 156 -22 21 -42 39
-45 39 -5 0 3 -71 16 -135 10 -50 41 -109 71 -136 22 -21 144 -74 174 -77 3 0
12 -3 20 -6 17 -5 170 -35 215 -42 39 -6 138 -57 143 -74 3 -7 1 -10 -4 -8 -5
3 -46 9 -91 12 -46 4 -93 9 -105 12 -13 2 -48 8 -78 14 -30 5 -71 15 -90 21
-36 10 -57 16 -87 23 -20 4 -91 31 -138 51 -97 41 -136 61 -193 93 l-62 36 1
111 c2 154 -11 176 -187 335 -101 91 -188 216 -215 308 l-13 44 -14 -28 c-40
-75 -53 -209 -27 -270 26 -62 136 -184 269 -299 65 -56 118 -135 96 -143 -19
-7 -164 113 -284 233 -110 111 -216 243 -265 331 -9 16 -19 31 -22 34 -7 5
-23 49 -24 65 0 6 19 43 42 83 84 143 86 168 28 387 -40 151 -52 287 -34 379
5 27 7 51 6 53 -10 10 -138 -124 -161 -167 -46 -88 -39 -159 40 -395 46 -138
53 -189 35 -236 -8 -22 -11 -20 -35 33 -32 71 -88 248 -96 300 -1 4 -5 21 -10
38 -5 17 -12 53 -15 82 -4 28 -9 60 -11 72 -12 58 -12 182 -1 197 13 16 131
99 142 99 11 0 66 65 80 95 15 31 18 43 40 160 3 17 10 50 15 75 6 25 12 54
14 65 12 58 71 186 111 237 25 32 42 58 39 58 -3 0 -33 -7 -67 -16 -130 -34
-205 -86 -233 -163 -9 -25 -19 -53 -22 -61 -8 -23 -7 -15 -27 -130 -2 -8 -6
-42 -9 -75 -15 -126 -30 -178 -69 -227 -22 -28 -26 -22 -22 35 12 142 23 212
51 330 2 9 6 27 9 39 9 41 58 183 82 238 41 94 57 120 73 121 8 1 29 2 45 4
17 1 55 4 85 5 91 5 147 42 237 160 51 66 124 151 156 180 48 45 155 110 179
110 32 0 19 17 -24 29 -101 31 -186 33 -238 6 -53 -27 -159 -141 -255 -275
-51 -71 -99 -126 -116 -136 -60 -31 -54 -15 55 147 41 61 103 133 199 233 72
75 88 104 62 113 -15 5 -152 -129 -222 -217 -33 -41 -88 -118 -121 -170 -57
-88 -61 -92 -55 -55 9 61 50 163 82 207 31 42 107 130 179 206 23 25 54 70 69
101 24 48 27 67 27 146 -1 99 -6 145 -14 145 -3 -1 -16 -23 -29 -50z"/>
<path d="M10310 9080 c-8 -5 -17 -7 -21 -4 -4 2 -52 -5 -105 -17 -538 -116
-973 -518 -1124 -1039 -27 -91 -31 -112 -48 -225 -12 -83 -7 -364 7 -440 21
-108 47 -203 75 -280 34 -88 117 -255 128 -255 4 0 8 -5 8 -12 0 -16 127 -182
187 -243 90 -94 242 -212 333 -259 202 -105 341 -153 515 -180 92 -14 123 -17
207 -18 494 -3 946 227 1235 630 52 72 162 272 170 307 1 6 11 35 22 65 51
141 81 318 82 493 0 39 0 77 -1 82 -1 6 -2 13 -1 17 7 48 -69 394 -99 446 -5
9 -21 43 -34 74 -44 104 -138 249 -226 352 -82 95 -305 285 -337 286 -6 0 -13
4 -15 9 -1 5 -49 32 -105 60 -109 55 -306 124 -386 136 -27 3 -59 9 -70 12
-36 10 -382 12 -397 3z m330 -44 c52 -6 81 -10 140 -20 87 -14 236 -66 365
-127 212 -99 441 -306 564 -510 71 -116 159 -320 175 -405 2 -10 9 -37 15 -59
6 -23 13 -59 16 -80 3 -22 7 -56 10 -75 8 -54 8 -259 1 -310 -4 -25 -9 -61
-12 -80 -20 -152 -88 -346 -175 -500 -19 -32 -69 -110 -80 -124 -5 -6 -28 -36
-51 -66 -112 -147 -304 -295 -501 -388 -73 -34 -231 -89 -281 -98 -17 -2 -38
-7 -46 -9 -57 -16 -183 -29 -285 -29 -86 1 -233 12 -245 19 -4 2 -22 6 -41 9
-91 12 -243 64 -364 124 -77 38 -220 124 -235 142 -3 3 -25 21 -50 40 -178
138 -362 412 -439 657 -33 103 -36 115 -51 198 -33 185 -28 388 15 583 20 91
28 117 38 130 5 6 7 12 4 12 -10 0 72 181 118 262 149 258 344 436 625 573 75
36 264 99 330 110 19 3 51 9 70 14 19 4 56 7 82 7 27 -1 48 1 48 4 0 7 173 4
240 -4z"/>
<path d="M10327 8896 c-17 -16 -24 -32 -23 -57 1 -28 7 -37 34 -50 35 -18 69
-15 69 4 0 7 -14 13 -30 14 -31 1 -48 17 -44 43 5 27 18 40 43 40 21 0 36 19
17 21 -5 0 -16 2 -25 4 -9 2 -28 -7 -41 -19z"/>
<path d="M10439 8907 c-3 -42 0 -108 6 -117 15 -24 23 -6 24 54 0 47 -4 66
-14 70 -8 3 -15 0 -16 -7z"/>
<path d="M10524 8895 c-25 -25 -28 -36 -18 -70 14 -53 93 -56 114 -4 10 23 10
35 0 59 -7 17 -18 30 -24 31 -6 0 -19 2 -30 4 -10 2 -29 -7 -42 -20z m73 -44
c1 -10 -7 -27 -17 -36 -16 -14 -19 -14 -33 0 -17 16 -15 48 4 71 10 13 14 12
28 0 9 -9 17 -24 18 -35z"/>
<path d="M10669 8888 c0 -13 -2 -42 -5 -65 -4 -27 -2 -43 4 -43 15 0 21 13 24
49 3 41 12 39 24 -6 8 -32 37 -64 47 -53 2 3 7 33 11 68 6 52 5 62 -9 62 -14
0 -22 -41 -15 -75 1 -5 -2 -6 -7 -2 -4 5 -8 12 -8 15 0 4 -6 22 -14 40 -16 38
-51 45 -52 10z"/>
<path d="M10194 8888 c-3 -5 -8 -24 -10 -41 -2 -18 -6 -44 -9 -59 -5 -32 8
-44 25 -23 7 8 9 15 4 15 -14 0 19 20 34 20 6 0 12 -7 12 -16 0 -9 7 -14 18
-12 19 4 20 0 -13 71 -24 50 -48 67 -61 45z m36 -54 c0 -8 -6 -14 -14 -14 -9
0 -12 7 -9 20 6 22 23 18 23 -6z"/>
<path d="M10826 8825 c-32 -58 -30 -76 5 -52 22 16 53 12 43 -5 -6 -10 12 -27
28 -28 4 0 5 17 3 38 -1 20 -3 52 -4 70 -1 26 -5 32 -23 32 -17 0 -30 -13 -52
-55z m50 1 c0 -15 -5 -22 -13 -19 -16 6 -16 16 -1 31 7 7 12 12 13 12 1 0 1
-11 1 -24z"/>
<path d="M10088 8864 c-4 -3 0 -22 9 -42 l15 -37 -34 33 c-58 55 -77 39 -53
-43 10 -35 21 -55 30 -55 19 0 19 2 0 47 -8 20 -14 38 -12 39 2 2 19 -12 37
-31 42 -43 64 -46 57 -7 -17 87 -31 114 -49 96z"/>
<path d="M10973 8838 c-16 -21 -35 -100 -26 -107 4 -4 20 -12 35 -19 21 -9 27
-8 32 4 3 8 0 14 -7 14 -31 0 -36 22 -17 71 14 37 15 49 5 49 -7 0 -17 -6 -22
-12z"/>
<path d="M9845 8773 c-10 -7 -22 -14 -28 -16 -14 -4 43 -117 59 -117 7 0 16 5
19 10 4 6 10 8 14 5 5 -2 16 10 26 28 16 31 16 36 2 64 -18 35 -63 48 -92 26z
m61 -27 c13 -12 11 -47 -2 -61 -16 -16 -18 -15 -37 14 -24 39 -17 65 15 55 13
-3 24 -7 24 -8z"/>
<path d="M11116 8734 c-32 -58 -32 -68 -1 -82 54 -25 100 -5 110 48 5 25 -42
80 -68 80 -9 0 -27 -21 -41 -46z m67 1 c30 -30 -16 -92 -48 -65 -13 11 -10 24
18 68 10 15 12 15 30 -3z"/>
<path d="M9714 8690 c-13 -13 26 -132 41 -126 5 2 9 12 8 22 -2 25 15 34 49
27 35 -7 36 6 2 32 -14 10 -35 27 -46 37 -24 20 -39 23 -54 8z m49 -52 c-9
-15 -23 -8 -23 12 0 17 2 19 14 8 8 -7 12 -16 9 -20z"/>
<path d="M11263 8674 c-13 -14 -23 -28 -23 -31 0 -2 -7 -11 -15 -19 -16 -17
-20 -34 -7 -34 5 0 18 -10 31 -21 16 -15 26 -18 33 -11 7 7 4 14 -11 24 -11 7
-21 18 -21 25 0 15 26 17 35 3 3 -5 10 -10 16 -10 15 0 10 22 -8 36 -26 18 -8
30 22 14 14 -7 28 -11 31 -8 5 6 -46 58 -56 58 -3 0 -15 -12 -27 -26z"/>
<path d="M10417 8654 c-1 -1 -25 -5 -52 -8 -78 -8 -114 -15 -200 -41 -93 -28
-264 -112 -295 -145 -3 -3 -23 -18 -45 -35 -44 -32 -175 -165 -175 -176 0 -4
-6 -14 -13 -21 -26 -26 -96 -147 -123 -209 -32 -77 -62 -178 -70 -239 -3 -25
-8 -49 -11 -53 -7 -11 -5 -235 2 -272 33 -174 87 -317 156 -417 11 -14 19 -31
19 -37 0 -6 4 -11 8 -11 4 0 15 -12 24 -27 26 -45 127 -146 205 -205 307 -236
768 -280 1118 -106 141 70 307 209 380 318 16 25 33 47 37 50 11 9 108 207
108 222 0 8 3 18 7 22 4 3 8 12 9 19 2 7 6 24 9 39 3 15 9 38 14 50 5 13 9 26
9 31 0 4 4 33 8 65 8 61 8 204 0 262 -54 406 -334 747 -717 870 -52 17 -105
32 -119 34 -14 2 -46 7 -71 10 -46 7 -217 15 -222 10z m213 -48 c169 -25 320
-88 455 -191 343 -261 489 -659 390 -1060 -10 -39 -24 -82 -32 -97 -7 -16 -11
-28 -9 -28 12 0 -82 -163 -133 -229 -70 -92 -77 -101 -83 -101 -2 0 -29 -24
-59 -53 -137 -133 -342 -231 -529 -254 -159 -20 -347 0 -475 49 -156 60 -236
111 -363 233 -235 225 -352 548 -309 855 24 167 105 359 202 480 68 84 264
260 289 260 5 0 20 8 34 19 67 47 250 108 356 118 34 3 62 7 64 8 4 4 164 -3
202 -9z"/>
<path d="M10664 8454 c-63 -57 -67 -57 -104 -19 -19 19 -39 35 -46 35 -7 0
-27 -17 -45 -37 -17 -21 -65 -74 -106 -118 l-74 -79 -172 -1 -172 0 -3 -675
-2 -674 57 -59 c32 -33 71 -67 87 -78 27 -17 31 -17 60 -2 61 32 65 59 18 121
-37 49 -33 114 13 183 53 81 54 99 6 175 -60 95 -57 102 22 50 29 -19 70 -43
92 -53 22 -10 43 -22 46 -26 3 -5 8 -8 10 -7 2 1 11 -1 19 -4 111 -38 256 -45
360 -19 61 16 220 90 220 103 0 5 9 11 20 15 11 3 63 48 115 100 83 80 98 100
109 142 6 26 11 59 10 73 -2 14 -4 48 -6 76 l-3 51 -48 17 c-31 11 -52 26 -59
42 -6 13 -15 24 -20 24 -14 0 -9 80 8 116 9 19 20 34 24 34 14 0 32 59 26 84
-3 14 -26 39 -51 56 -24 17 -52 44 -62 60 -9 17 -21 30 -25 30 -4 0 -8 9 -8
21 0 14 -46 65 -132 150 -73 71 -136 129 -139 129 -3 0 -23 -16 -45 -36z m101
-69 c12 -11 53 -49 93 -84 49 -43 80 -80 97 -116 21 -46 105 -135 127 -135 17
0 7 -38 -17 -66 -39 -45 -45 -76 -36 -175 2 -27 61 -87 95 -99 18 -6 33 -16
34 -23 17 -143 5 -172 -116 -289 -101 -97 -155 -136 -234 -167 -72 -29 -91
-32 -218 -36 -84 -3 -117 0 -163 15 -74 25 -168 72 -230 116 -41 30 -50 32
-67 22 -41 -26 -37 -68 15 -137 19 -27 35 -54 35 -60 0 -17 -39 -91 -48 -91
-15 0 -35 -65 -35 -110 2 -60 4 -70 32 -108 26 -38 22 -62 -11 -62 -15 0 -44
21 -82 59 l-58 58 1 614 c0 338 0 630 0 650 l1 37 164 -1 165 0 58 63 c32 35
79 86 105 114 l47 51 39 -38 40 -39 48 37 c27 21 51 42 53 47 3 9 21 -4 66
-47z"/>
<path d="M10292 8112 c-6 -17 5 -27 31 -27 20 0 22 -5 22 -65 l0 -65 -138 0
c-75 0 -137 -3 -137 -7 0 -23 1 -23 81 -27 l26 -1 -1 -190 c-1 -132 -5 -193
-13 -201 -7 -7 -30 -13 -53 -14 -43 -2 -61 -12 -43 -23 6 -4 69 -7 140 -6 104
0 128 3 128 15 0 9 -11 14 -30 14 -49 1 -75 14 -76 38 -4 67 -4 314 -1 324 3
8 25 -2 64 -28 52 -36 59 -44 53 -66 -9 -39 -8 -145 4 -174 5 -15 8 -29 5 -31
-8 -8 27 -82 57 -119 55 -70 142 -86 204 -37 22 17 26 18 31 4 3 -9 12 -16 20
-16 10 0 14 15 14 58 0 32 6 66 13 76 12 16 18 14 81 -28 46 -31 73 -43 83
-38 12 7 14 43 13 215 -1 233 -4 225 82 230 23 2 43 8 46 15 4 13 2 14 -151
12 -59 -1 -111 1 -115 4 -4 2 -5 31 -2 63 4 50 8 58 27 61 12 2 24 10 27 17
10 26 -25 33 -137 26 -25 -1 -18 -33 8 -37 37 -5 43 -30 44 -170 0 -74 -2
-134 -5 -134 -7 0 -156 91 -164 100 -3 3 -14 10 -25 16 -30 17 -31 52 -2 65
59 27 133 -27 152 -109 7 -36 25 -52 26 -25 2 48 -2 157 -6 161 -3 3 -13 -2
-23 -11 -17 -15 -21 -15 -66 8 -36 18 -53 22 -72 15 -13 -5 -24 -8 -25 -7 -1
1 -3 23 -5 48 -4 44 -3 46 22 43 24 -2 44 19 31 33 -3 3 -59 6 -123 7 -87 1
-118 -2 -122 -12z m528 -209 c11 -11 13 -32 11 -130 l-1 -83 -25 12 c-14 6
-25 15 -25 20 0 4 -6 8 -14 8 -7 0 -18 6 -24 13 -13 15 -20 156 -9 174 7 12
73 2 87 -14z m-252 -245 c119 -80 115 -76 88 -105 -40 -43 -126 -37 -155 10
-14 21 -26 147 -15 147 3 0 40 -23 82 -52z m59 -182 c-23 -48 -91 -68 -132
-38 -40 29 -30 39 38 39 35 0 72 5 83 11 10 6 20 12 21 12 0 0 -4 -11 -10 -24z"/>
<path d="M9614 8604 c-54 -26 -57 -45 -12 -92 21 -23 43 -42 47 -42 16 0 61
61 58 78 -8 52 -50 77 -93 56z m57 -44 c1 -6 2 -16 3 -22 1 -7 -2 -19 -8 -26
-8 -11 -16 -7 -38 19 -15 17 -28 35 -28 40 0 22 68 11 71 -11z"/>
<path d="M11335 8573 l-40 -45 28 -24 c42 -36 65 -30 30 8 -16 17 -15 20 15
51 18 18 32 38 32 45 0 23 -25 10 -65 -35z"/>
<path d="M9515 8510 c-7 -12 73 -89 93 -90 22 0 13 20 -24 53 -48 42 -61 49
-69 37z"/>
<path d="M11472 8469 c-12 -5 -27 -20 -33 -33 -19 -42 17 -107 44 -79 4 3 -1
11 -10 18 -11 8 -14 20 -10 37 9 34 43 42 69 16 26 -26 45 -9 21 19 -22 24
-52 33 -81 22z"/>
<path d="M9457 8440 c-8 -11 -12 -32 -9 -46 4 -22 9 -25 31 -21 14 2 34 8 44
12 21 9 23 -11 2 -32 -8 -8 -12 -19 -8 -25 8 -15 53 37 53 61 0 11 -7 22 -16
25 -24 9 -54 7 -54 -4 0 -5 -7 -10 -16 -10 -10 0 -14 5 -10 15 3 8 9 22 12 30
9 22 -13 18 -29 -5z"/>
<path d="M11547 8355 c-26 -18 -50 -35 -53 -38 -7 -6 27 -67 36 -67 15 0 19
14 9 26 -6 8 -8 22 -4 31 6 16 8 15 24 -6 21 -28 38 -13 21 18 -14 27 6 38 22
11 7 -11 19 -20 26 -20 9 0 7 11 -8 40 -11 22 -21 40 -23 39 -1 -1 -24 -16
-50 -34z"/>
<path d="M9380 8323 c-8 -16 -15 -31 -17 -34 -4 -10 96 -71 107 -64 16 10 12
23 -11 30 -16 5 -18 10 -8 21 8 10 16 11 29 4 13 -7 21 -6 29 4 13 15 -4 26
-39 26 -10 0 -20 9 -23 20 -8 31 -51 26 -67 -7z m50 -16 c0 -8 -3 -17 -7 -20
-9 -9 -34 13 -27 24 8 14 34 11 34 -4z"/>
<path d="M11611 8254 c-23 -12 -48 -27 -54 -33 -19 -19 1 -23 34 -7 18 9 34
14 37 12 2 -3 -8 -21 -24 -41 -36 -47 -21 -67 31 -42 19 9 38 18 43 19 16 4
33 28 27 38 -4 7 -19 4 -41 -9 -19 -11 -34 -16 -34 -11 0 5 5 12 10 15 6 3 17
19 25 35 22 42 1 52 -54 24z"/>
<path d="M9320 8213 c-8 -16 -16 -31 -17 -35 -2 -4 24 -20 57 -36 l61 -30 14
35 c18 43 9 64 -14 30 -21 -31 -44 -25 -31 8 12 31 -5 43 -20 15 -17 -31 -33
-25 -25 10 8 38 -7 39 -25 3z"/>
<path d="M11715 8138 c-4 -9 -4 -21 -1 -26 3 -5 -11 -14 -32 -20 -49 -16 -66
-27 -58 -41 5 -7 22 -5 56 8 40 15 50 16 54 5 7 -17 26 -18 26 -1 0 6 -9 30
-19 52 -15 32 -20 36 -26 23z"/>
<path d="M9277 8123 c-9 -9 33 -53 50 -53 7 0 13 -5 13 -11 0 -6 -17 -9 -41
-8 -28 2 -43 -1 -49 -12 -7 -12 3 -15 61 -17 75 -3 97 12 65 43 -9 9 -16 14
-16 10 0 -3 -13 8 -30 25 -30 30 -41 35 -53 23z"/>
<path d="M11712 8001 c-62 -22 -63 -23 -52 -41 7 -12 11 -12 25 0 14 12 18 12
25 0 6 -9 2 -18 -11 -28 -19 -13 -26 -42 -11 -42 5 0 17 8 28 18 10 9 28 16
40 14 34 -5 48 21 34 63 -13 40 -9 39 -78 16z m54 -48 c-3 -3 -13 -2 -23 1
-17 7 -17 8 2 22 18 13 20 13 23 -1 2 -9 1 -19 -2 -22z"/>
<path d="M9230 7976 c0 -16 95 -50 117 -42 24 10 6 24 -51 40 -66 19 -66 19
-66 2z"/>
<path d="M9210 7910 c-12 -8 -12 -10 2 -15 9 -4 23 -8 32 -9 32 -5 27 -15 -13
-26 -29 -8 -41 -16 -41 -29 0 -19 10 -23 99 -38 48 -8 36 17 -15 32 l-39 11
48 12 c26 7 47 17 47 22 0 6 0 12 0 15 0 3 -1 5 -2 4 -2 0 -14 4 -28 9 -47 17
-75 21 -90 12z"/>
<path d="M11739 7872 c-28 -14 -34 -23 -35 -50 -1 -38 25 -62 68 -62 28 0 68
33 64 53 -11 63 -47 84 -97 59z m67 -37 c15 -39 -56 -63 -76 -26 -8 16 -6 22
7 30 27 15 63 13 69 -4z"/>
<path d="M9176 7761 c-8 -13 15 -27 48 -29 36 -2 57 -19 49 -38 -4 -11 -18
-13 -59 -9 -44 4 -54 2 -54 -10 0 -9 10 -15 23 -16 12 -1 36 -3 54 -5 58 -7
88 60 41 90 -28 18 -95 29 -102 17z"/>
<path d="M9255 7267 c-66 -24 -72 -31 -54 -64 28 -56 69 -68 107 -33 24 23 28
63 9 96 -12 20 -12 20 -62 1z m49 -33 c14 -36 -50 -68 -75 -38 -14 17 -14 16
26 37 38 20 42 21 49 1z"/>
<path d="M9293 7139 c-50 -29 -51 -30 -41 -59 11 -34 23 -44 39 -35 7 5 5 13
-6 25 -14 16 -14 18 0 30 14 11 17 10 22 -8 3 -12 12 -22 19 -22 17 0 17 5 4
30 -7 13 -6 19 5 23 8 4 16 -2 20 -14 6 -18 35 -28 35 -11 0 8 -38 73 -42 71
-2 -1 -26 -14 -55 -30z"/>
<path d="M11563 7118 c-14 -23 -13 -47 3 -62 14 -14 18 -14 45 -1 37 19 57 10
34 -15 -12 -13 -13 -20 -5 -25 29 -18 50 54 24 80 -15 14 -19 14 -51 -5 l-35
-20 7 30 c7 31 -7 41 -22 18z"/>
<path d="M11510 7018 c-10 -17 -17 -35 -14 -40 3 -5 24 -18 47 -29 23 -12 45
-26 48 -31 8 -12 51 61 43 73 -3 5 -13 0 -23 -12 -22 -28 -46 -18 -30 12 16
30 1 38 -20 10 -21 -28 -38 -13 -21 18 23 44 -3 43 -30 -1z"/>
<path d="M9385 7027 c-12 -7 -33 -21 -49 -32 l-27 -21 18 -32 c10 -17 21 -32
25 -32 12 0 19 18 8 25 -20 12 -9 33 30 59 55 36 51 64 -5 33z"/>
<path d="M11448 6928 c-25 -31 -22 -45 10 -62 16 -8 34 -22 41 -30 8 -9 20
-16 27 -16 19 0 18 27 -2 38 -24 13 -8 35 15 22 13 -6 24 -5 37 4 16 13 15 14
-15 21 -17 4 -37 15 -44 26 -16 25 -48 24 -69 -3z m50 -26 c3 -9 -2 -13 -14
-10 -9 1 -19 9 -22 16 -3 9 2 13 14 10 9 -1 19 -9 22 -16z"/>
<path d="M9417 6918 c-56 -19 -73 -43 -31 -43 33 0 45 -13 32 -35 -9 -13 -9
-23 -2 -30 6 -6 23 8 51 43 35 45 39 55 28 70 -7 9 -14 16 -16 16 -2 -1 -30
-10 -62 -21z m43 -28 c-6 -11 -15 -18 -21 -15 -15 10 -11 23 9 28 9 3 18 5 20
6 1 0 -2 -8 -8 -19z"/>
<path d="M11396 6861 c-4 -5 17 -28 46 -50 38 -31 53 -38 60 -29 5 8 1 18 -9
25 -9 7 -29 24 -45 38 -30 27 -43 31 -52 16z"/>
<path d="M9512 6792 c-52 -46 -59 -77 -11 -52 14 8 25 7 43 -5 23 -15 26 -15
45 4 12 12 21 25 21 30 0 11 -40 61 -48 61 -4 0 -26 -17 -50 -38z m68 -16 c0
-20 -19 -31 -32 -18 -6 6 -7 15 -4 21 10 16 36 13 36 -3z"/>
<path d="M11341 6796 c-9 -11 -5 -26 20 -67 38 -65 35 -62 48 -55 7 4 7 15 1
31 -7 19 -6 25 9 30 11 3 23 5 27 4 53 -9 36 15 -32 46 -64 29 -59 29 -73 11z
m59 -41 c0 -15 -21 -12 -30 5 -11 20 -10 21 9 10 12 -6 21 -13 21 -15z"/>
<path d="M9588 6710 c-21 -22 -38 -47 -38 -56 0 -15 2 -15 26 1 31 20 41 13
26 -20 -7 -15 -8 -27 -2 -30 14 -8 30 3 30 21 0 8 11 19 24 23 33 13 38 44 11
75 -12 14 -26 26 -31 25 -5 0 -26 -18 -46 -39z m65 -26 c-3 -8 -9 -14 -13 -14
-14 0 -21 17 -14 34 5 12 10 14 20 6 7 -7 10 -18 7 -26z"/>
<path d="M11242 6700 c-41 -38 -22 -76 32 -66 41 8 47 -5 14 -28 -20 -14 -20
-16 -3 -22 12 -5 24 0 37 15 34 43 13 76 -41 65 -34 -7 -43 8 -13 25 12 7 14
13 6 20 -7 8 -17 5 -32 -9z"/>
<path d="M9671 6634 c-25 -32 -26 -52 -5 -82 34 -49 128 -6 116 53 -10 55 -77
72 -111 29z m79 -27 c0 -13 -9 -32 -20 -42 -16 -15 -22 -15 -35 -5 -30 25 -9
69 33 70 17 0 22 -6 22 -23z"/>
<path d="M11143 6625 c-29 -21 -34 -49 -12 -84 25 -42 71 -46 101 -9 22 25 17
63 -11 89 -24 23 -49 24 -78 4z m67 -41 c13 -34 13 -41 -5 -48 -19 -7 -52 12
-58 34 -12 45 46 59 63 14z"/>
<path d="M9788 6535 c-14 -61 -14 -65 3 -70 13 -4 34 6 64 31 25 21 45 42 45
46 0 20 -21 14 -50 -13 -37 -36 -44 -34 -29 10 11 31 7 61 -9 61 -4 0 -15 -29
-24 -65z"/>
<path d="M11065 6569 c-4 -5 0 -18 7 -27 33 -38 28 -43 -14 -18 -38 22 -47 24
-64 12 -10 -7 -36 -19 -56 -25 -21 -7 -38 -16 -38 -20 0 -16 43 -111 50 -111
17 0 70 23 70 30 0 12 -16 21 -24 13 -12 -12 -35 -11 -40 2 -2 7 4 15 15 18
10 3 19 12 19 21 0 12 -5 14 -25 6 -34 -13 -43 7 -11 22 14 6 26 15 26 20 0
23 19 3 40 -42 13 -27 26 -50 30 -50 18 0 17 16 -1 52 l-20 40 43 -30 c30 -20
49 -28 58 -22 11 7 9 19 -15 64 -30 57 -38 65 -50 45z"/>
<path d="M9888 6483 c-26 -58 -28 -76 -5 -67 15 6 59 103 51 115 -11 18 -20 8
-46 -48z"/>
<path d="M9960 6518 c0 -2 -9 -28 -20 -58 -23 -64 -24 -70 -7 -70 6 0 19 17
29 38 l16 37 2 -40 c1 -22 2 -43 1 -47 -1 -8 4 -10 30 -12 13 -1 51 103 42
117 -8 14 -33 -21 -33 -47 0 -34 -21 -3 -22 33 -1 20 -8 36 -20 42 -10 5 -18
8 -18 7z"/>
<path d="M10855 6478 c-3 -8 -1 -27 5 -42 16 -43 13 -66 -10 -66 -15 0 -22 11
-31 45 -8 33 -16 45 -29 45 -16 0 -17 -4 -9 -32 21 -77 53 -101 97 -72 22 14
23 21 17 62 -7 53 -30 87 -40 60z"/>
<path d="M10077 6443 c-30 -34 -14 -113 23 -113 5 0 15 -3 24 -6 25 -10 19 20
-6 31 -29 13 -37 62 -12 72 27 10 79 7 77 -4 -11 -55 -13 -102 -4 -108 12 -7
17 3 26 55 12 67 11 73 -10 76 -11 2 -38 6 -60 9 -32 6 -43 3 -58 -12z"/>
<path d="M10682 6442 c-13 -9 -11 -64 4 -114 9 -31 94 -1 94 33 0 4 -6 14 -12
21 -7 7 -13 24 -13 38 0 21 -5 25 -30 28 -16 1 -36 -2 -43 -6z m48 -27 c0 -8
-7 -15 -15 -15 -16 0 -20 12 -8 23 11 12 23 8 23 -8z m15 -56 c0 -7 -8 -15
-17 -17 -12 -2 -18 3 -18 16 0 14 6 19 18 18 9 -2 17 -9 17 -17z"/>
<path d="M10557 6432 c-29 -4 -30 -8 -18 -124 2 -13 74 -3 79 11 3 10 -2 13
-22 9 -14 -3 -26 -1 -26 3 0 5 0 12 0 17 0 4 5 8 10 8 6 1 15 2 20 3 6 0 10 8
10 16 0 12 -7 14 -26 9 -20 -5 -25 -3 -22 7 3 8 14 15 26 17 12 2 22 9 22 16
0 13 -5 14 -53 8z"/>
<path d="M10242 6369 c-26 -66 -24 -81 5 -52 21 21 53 19 53 -3 0 -8 7 -14 15
-14 18 0 19 13 3 79 -9 41 -15 51 -32 51 -16 0 -26 -14 -44 -61z m48 4 c0 -19
-3 -24 -10 -17 -6 6 -8 18 -4 27 9 24 14 21 14 -10z"/>
<path d="M10403 6417 c-8 -13 -7 -102 2 -116 3 -6 16 -9 28 -7 12 3 30 5 40 5
10 1 24 15 32 33 11 28 11 37 -1 60 -8 16 -18 29 -22 29 -35 7 -73 5 -79 -4z
m77 -47 c0 -32 -11 -50 -31 -50 -15 0 -19 7 -19 38 0 21 3 42 6 45 11 11 44
-13 44 -33z"/>
<path d="M5297 7894 c-1 -1 -42 -5 -92 -9 -49 -3 -92 -8 -95 -10 -3 -1 -25 -6
-50 -9 -95 -13 -337 -77 -365 -96 -5 -4 -28 -13 -50 -20 -125 -41 -427 -207
-550 -303 -5 -4 -45 -34 -87 -66 -97 -72 -285 -232 -292 -247 -2 -7 17 -27 42
-45 26 -18 53 -39 60 -46 7 -7 16 -13 18 -13 8 0 48 22 54 29 38 48 454 233
571 254 13 3 42 10 64 15 43 12 80 18 165 29 75 10 399 10 485 0 90 -11 266
-46 333 -66 18 -5 35 -10 37 -10 10 0 182 -53 245 -76 70 -25 181 -69 270
-106 102 -43 424 -208 573 -293 110 -63 150 -82 158 -73 5 7 84 120 174 252
90 132 171 249 179 260 9 10 16 22 16 25 0 26 -266 197 -451 290 -57 29 -115
58 -129 65 -90 47 -380 150 -510 181 -8 2 -42 10 -76 18 -34 8 -73 17 -88 20
-155 29 -155 29 -286 42 -62 6 -318 12 -323 8z"/>
<path d="M1409 7826 c-2 -2 -31 -6 -64 -9 -70 -7 -150 -21 -220 -37 -27 -6
-57 -13 -65 -15 -28 -6 -174 -56 -205 -70 -17 -7 -52 -23 -78 -34 -188 -81
-419 -259 -538 -416 -43 -56 -117 -193 -123 -226 -1 -8 -6 -24 -10 -36 -11
-34 -24 -123 -17 -123 3 0 15 21 25 48 60 149 179 258 367 335 199 82 427 102
634 57 22 -5 54 -11 71 -14 183 -32 536 -182 789 -334 78 -47 307 -197 339
-223 6 -4 74 -56 151 -114 77 -58 235 -176 350 -264 116 -87 271 -199 346
-248 399 -264 906 -483 1299 -562 30 -6 66 -14 80 -17 14 -2 43 -7 65 -9 22
-3 67 -8 100 -13 115 -14 472 -8 590 11 134 21 134 21 215 42 36 9 73 18 82
20 23 5 199 73 218 85 8 5 34 18 57 29 51 24 223 137 278 182 50 42 164 153
149 145 -11 -5 -103 -21 -193 -31 -101 -12 -363 -6 -445 11 -12 2 -34 6 -51 8
-58 9 -101 17 -200 42 -55 13 -111 27 -124 30 -13 3 -32 9 -43 15 -10 5 -18 8
-18 5 0 -9 -294 96 -400 142 -259 114 -476 221 -612 301 -14 9 -56 33 -93 55
-37 21 -87 51 -110 67 -24 16 -46 29 -49 29 -4 0 -12 4 -19 10 -11 9 -360 242
-396 265 -9 6 -32 22 -51 36 -108 82 -527 362 -585 391 -22 12 -42 23 -45 27
-14 17 -287 157 -405 208 -74 33 -251 100 -285 109 -134 35 -248 61 -307 69
-26 4 -59 9 -73 12 -30 6 -375 14 -381 9z"/>
<path d="M4815 7300 c-4 -6 -4 -13 -2 -17 3 -5 8 -26 11 -48 4 -22 11 -56 16
-75 5 -19 11 -48 14 -65 2 -16 10 -55 16 -85 6 -30 13 -64 15 -75 3 -11 16
-76 30 -145 15 -69 28 -136 31 -150 3 -14 7 -32 9 -40 3 -8 -41 33 -97 91
-135 139 -414 430 -459 480 -49 54 -77 55 -40 1 10 -15 43 -65 73 -112 31 -47
116 -177 190 -290 73 -113 137 -211 142 -218 5 -9 -6 -6 -30 6 -22 11 -95 47
-164 80 -69 33 -199 97 -289 141 -109 54 -168 78 -175 71 -5 -5 -8 -11 -5 -13
2 -3 87 -64 189 -137 102 -73 187 -137 188 -142 2 -4 9 -8 15 -8 7 0 28 -14
47 -30 19 -16 38 -30 42 -30 7 0 32 -19 62 -45 40 -38 177 -117 261 -154 55
-23 109 -46 120 -51 35 -16 199 -72 220 -76 11 -2 52 -13 90 -25 70 -21 254
-62 330 -73 122 -19 152 -17 241 9 49 14 98 28 109 31 11 2 61 15 110 29 50
13 143 39 208 56 85 23 121 38 128 52 9 16 8 18 -8 13 -10 -3 -47 -8 -83 -11
-36 -3 -83 -8 -105 -10 -22 -2 -65 -7 -95 -10 -30 -3 -73 -8 -95 -10 -23 -3
-63 -7 -90 -10 -28 -2 -81 -7 -120 -10 -64 -6 -68 -5 -45 8 14 8 81 46 149 86
68 39 125 71 127 71 1 0 31 17 65 38 35 21 89 52 119 69 217 120 294 168 274
171 -19 3 -125 -35 -554 -195 -137 -51 -293 -103 -297 -99 -2 2 42 45 98 97
56 52 120 112 144 134 23 22 69 65 101 95 172 161 222 210 213 215 -5 4 -28
-7 -51 -23 -24 -16 -77 -49 -118 -73 -41 -24 -79 -47 -85 -52 -24 -20 -417
-257 -426 -257 -5 0 -9 -4 -9 -8 0 -5 -11 -14 -24 -20 -23 -10 -22 -7 12 49
20 33 42 68 47 77 6 9 24 37 40 62 16 25 34 53 40 63 5 9 58 93 117 185 118
185 124 197 108 207 -7 4 -64 -48 -145 -131 -73 -77 -179 -186 -234 -244 -56
-57 -101 -99 -101 -91 0 7 12 58 26 114 14 56 27 107 28 112 2 6 8 28 14 50 6
22 13 51 16 65 2 14 17 71 32 128 23 88 25 105 13 113 -16 10 -19 4 -139 -266
-17 -38 -31 -72 -31 -75 0 -3 -9 -19 -20 -36 -10 -17 -16 -33 -14 -36 3 -3 -1
-11 -10 -18 -8 -7 -15 -19 -15 -27 0 -12 -37 -93 -43 -93 -1 0 -3 30 -4 68 -2
91 -15 501 -17 531 -1 17 -7 25 -23 26 -22 2 -24 -2 -39 -100 -2 -11 -8 -40
-15 -65 -6 -25 -13 -56 -15 -70 -3 -13 -12 -56 -20 -95 -9 -38 -17 -77 -19
-86 -2 -9 -6 -34 -9 -55 -4 -22 -9 -47 -12 -56 -3 -9 -7 -26 -9 -39 -2 -12 -6
-24 -9 -26 -5 -5 -31 69 -28 80 1 4 -2 7 -8 7 -5 0 -10 4 -10 9 0 6 -45 118
-100 250 -55 132 -100 244 -100 250 0 13 -28 22 -35 11z"/>
<path d="M324 7047 c-108 -80 -189 -191 -225 -310 -24 -79 -21 -263 6 -347 3
-10 7 -27 9 -37 9 -43 86 -213 106 -233 3 -3 24 -30 47 -61 119 -156 340 -305
548 -369 39 -12 77 -24 85 -27 8 -3 26 -7 40 -9 14 -2 36 -6 50 -10 126 -33
429 -38 650 -9 166 21 375 80 540 152 228 99 492 267 643 410 l37 35 -85 41
c-71 34 -89 39 -103 29 -9 -7 -24 -15 -32 -19 -8 -4 -17 -10 -20 -14 -17 -24
-250 -129 -320 -144 -8 -2 -49 -13 -90 -24 -41 -11 -91 -23 -110 -26 -19 -3
-42 -8 -50 -10 -8 -3 -40 -7 -71 -10 -31 -3 -67 -8 -80 -10 -102 -20 -427 -27
-529 -11 -81 12 -89 14 -160 30 -142 32 -305 87 -391 132 -16 8 -31 14 -34 14
-11 -2 -147 99 -210 155 -66 58 -123 129 -157 194 -22 41 -58 129 -63 151 -2
8 -7 33 -12 55 -18 80 -5 212 28 279 10 22 17 41 15 43 -2 2 -30 -16 -62 -40z"/>
<path d="M10 4960 c-51 -32 -76 -32 6351 -31 3489 0 6357 0 6372 1 22 0 28 4
25 17 -3 17 -315 18 -6372 18 -3502 0 -6372 -2 -6376 -5z"/>
<path d="M2058 4195 c-1 -2 -23 -4 -48 -6 -133 -9 -235 -109 -225 -221 7 -86
44 -128 230 -257 133 -93 176 -146 172 -215 -4 -73 -73 -141 -152 -149 -93
-10 -170 40 -201 128 -13 41 -23 55 -37 55 -18 0 -19 -6 -14 -91 4 -51 8 -94
11 -96 13 -13 129 -31 200 -31 108 1 175 21 231 70 70 62 92 168 50 248 -21
39 -160 160 -184 160 -5 0 -11 3 -13 8 -1 4 -29 24 -60 46 -74 50 -107 85
-123 131 -16 47 -4 99 32 137 34 36 68 47 137 43 73 -3 123 -36 157 -101 15
-30 33 -50 45 -52 19 -3 20 0 11 77 l-10 81 -36 10 c-20 6 -61 13 -91 16 -30
3 -60 7 -67 9 -6 2 -13 2 -15 0z"/>
<path d="M5837 4194 c-1 -1 -22 -4 -47 -6 -91 -9 -182 -68 -209 -135 -21 -53
-16 -127 13 -169 23 -35 110 -114 125 -114 3 0 17 -10 31 -22 14 -13 44 -36
68 -51 103 -67 152 -128 152 -191 0 -48 -13 -78 -49 -112 -99 -93 -264 -48
-303 83 -20 70 -57 71 -53 1 2 -24 4 -62 4 -85 1 -62 30 -73 200 -78 84 -3
114 0 153 16 137 54 188 156 144 288 -8 23 -73 93 -108 116 -178 116 -244 171
-268 220 -25 52 -25 76 0 125 29 57 91 85 168 76 70 -8 118 -43 150 -109 15
-32 29 -47 42 -47 18 0 19 5 13 63 -3 34 -6 70 -7 79 0 11 -14 20 -41 28 -38
10 -173 29 -178 24z"/>
<path d="M10094 4192 c-6 -4 -29 -54 -53 -112 -24 -58 -49 -118 -56 -135 -7
-16 -43 -102 -79 -190 -35 -88 -72 -177 -81 -197 -8 -21 -15 -40 -15 -43 0 -3
-13 -31 -29 -64 -22 -43 -39 -63 -65 -75 -61 -29 -37 -42 72 -41 80 1 97 4
100 17 2 10 -7 17 -28 21 -38 8 -40 34 -5 120 48 116 22 104 225 104 l179 0
26 -61 c62 -141 63 -166 8 -166 -18 0 -24 -5 -21 -17 3 -16 17 -18 123 -18
103 0 120 2 123 16 2 11 -6 19 -21 23 -28 7 -54 61 -227 471 -56 132 -110 259
-121 282 -10 24 -19 47 -19 52 0 12 -25 21 -36 13z m16 -249 c18 -43 40 -96
50 -118 10 -22 32 -73 48 -112 l31 -73 -27 0 c-15 -1 -69 -2 -120 -3 -50 -1
-92 1 -92 4 0 4 -18 3 -40 -1 -34 -6 -40 -5 -40 10 0 9 3 20 8 24 4 4 7 11 7
14 0 4 24 66 54 137 29 72 59 145 67 163 7 17 15 32 18 32 2 0 19 -35 36 -77z"/>
<path d="M7575 4180 c-6 -10 -13 -52 -21 -126 -6 -64 -6 -66 17 -62 12 1 23
10 25 19 1 9 9 32 19 52 21 45 71 63 170 62 l70 0 0 -358 0 -359 -24 -19 c-13
-10 -38 -19 -56 -19 -26 0 -33 -4 -31 -17 3 -16 18 -18 162 -19 175 0 181 0
181 21 0 13 -34 21 -68 17 -4 -1 -15 8 -25 19 -18 20 -19 43 -19 378 l0 356
81 -1 c120 -2 163 -29 176 -109 2 -12 12 -21 26 -23 22 -3 23 -2 17 60 -3 35
-8 77 -10 93 l-5 30 -298 -2 c-163 -1 -316 2 -340 6 -23 5 -44 5 -47 1z"/>
<path d="M0 4152 c0 -12 9 -18 31 -18 64 -3 64 0 67 -369 3 -377 1 -389 -59
-393 -39 -3 -43 -6 -36 -25 4 -11 36 -13 153 -13 132 1 149 4 152 19 3 13 -4
17 -27 17 -18 0 -40 9 -51 20 -19 19 -20 33 -20 359 0 308 2 341 18 360 9 11
31 22 47 24 18 2 31 10 33 20 3 15 -12 17 -152 17 -142 0 -156 -2 -156 -18z"/>
<path d="M3786 4162 c-6 -11 11 -38 19 -30 14 14 65 -15 72 -40 4 -15 7 -174
7 -354 1 -324 0 -327 -21 -348 -12 -11 -33 -20 -47 -20 -27 0 -45 -18 -27 -29
15 -10 283 -7 299 2 19 13 4 27 -29 27 -22 0 -34 8 -48 30 -17 28 -18 56 -16
358 1 180 5 335 9 345 5 9 20 20 35 23 35 7 54 18 52 29 -1 12 -297 19 -305 7z"/>
<path d="M11945 4162 c-12 -12 -3 -22 28 -35 18 -8 44 -29 58 -48 l25 -34 -1
-311 c-1 -278 -2 -314 -18 -337 -13 -20 -26 -27 -48 -27 -24 0 -30 -4 -27 -17
3 -16 17 -18 123 -19 113 -1 134 4 135 29 0 4 -12 7 -26 7 -41 0 -63 18 -70
57 -8 42 -9 531 -2 539 3 2 25 -21 49 -53 24 -32 47 -60 50 -63 3 -3 39 -48
79 -100 41 -52 77 -97 80 -100 3 -3 32 -39 65 -80 32 -41 64 -80 70 -86 5 -7
37 -46 69 -88 32 -42 61 -74 63 -72 3 2 5 172 5 377 1 205 3 381 6 391 5 22
31 37 66 40 28 3 43 26 23 34 -28 10 -250 -1 -254 -13 -3 -7 8 -15 24 -19 56
-12 61 -15 68 -37 6 -22 13 -527 7 -527 -5 0 -70 75 -125 145 -4 6 -15 20 -25
31 -9 12 -28 36 -42 54 -14 18 -33 42 -44 54 -10 11 -30 37 -45 56 -14 19 -34
43 -43 54 -9 10 -49 60 -90 112 l-73 93 -77 0 c-42 -1 -80 -4 -83 -7z"/>
</g>
</svg>
